<svg width="295" height="62" viewBox="0 0 295 62" fill="none" xmlns="http://www.w3.org/2000/svg">
<g clip-path="url(#clip0_705_2)">
<path d="M199.63 53.8794C199.35 53.3394 198.96 52.9294 198.46 52.6494C197.96 52.3694 197.38 52.2394 196.72 52.2394C196 52.2394 195.36 52.3994 194.8 52.7194C194.24 53.0394 193.8 53.4994 193.48 54.0994C193.16 54.6894 193 55.3794 193 56.1594C193 56.9394 193.16 57.6294 193.48 58.2294C193.8 58.8294 194.24 59.2894 194.8 59.6094C195.36 59.9294 196 60.0894 196.72 60.0894C197.69 60.0894 198.48 59.8194 199.08 59.2794C199.68 58.7394 200.05 57.9994 200.19 57.0794H196.11V55.6594H202.1V57.0494C201.99 57.8894 201.69 58.6694 201.2 59.3794C200.72 60.0894 200.08 60.6494 199.31 61.0794C198.53 61.4994 197.67 61.7094 196.72 61.7094C195.7 61.7094 194.77 61.4694 193.92 60.9994C193.08 60.5294 192.41 59.8694 191.91 59.0194C191.41 58.1794 191.17 57.2194 191.17 56.1594C191.17 55.0994 191.42 54.1394 191.91 53.2994C192.4 52.4594 193.08 51.7994 193.93 51.3194C194.78 50.8494 195.71 50.6094 196.72 50.6094C197.88 50.6094 198.91 50.8894 199.81 51.4594C200.71 52.0294 201.37 52.8294 201.77 53.8794H199.63Z" fill="#003B3F"/>
<path d="M221.38 61.62L218.88 57.27H217.52V61.62H215.74V50.75H219.49C220.32 50.75 221.03 50.9 221.61 51.19C222.19 51.48 222.62 51.87 222.91 52.36C223.2 52.85 223.34 53.4 223.34 54C223.34 54.71 223.13 55.35 222.72 55.93C222.31 56.51 221.67 56.9 220.82 57.11L223.51 61.61H221.38V61.62ZM217.52 55.85H219.49C220.16 55.85 220.66 55.68 221 55.35C221.34 55.02 221.51 54.57 221.51 54.01C221.51 53.45 221.34 53.01 221.01 52.69C220.68 52.37 220.17 52.21 219.49 52.21H217.52V55.85Z" fill="#003B3F"/>
<path d="M239.66 61.0194C238.81 60.5494 238.14 59.8794 237.64 59.0294C237.14 58.1794 236.9 57.2194 236.9 56.1594C236.9 55.0994 237.15 54.1394 237.64 53.2994C238.14 52.4594 238.81 51.7994 239.66 51.3194C240.51 50.8494 241.44 50.6094 242.45 50.6094C243.46 50.6094 244.41 50.8494 245.26 51.3194C246.11 51.7894 246.78 52.4494 247.27 53.2994C247.76 54.1394 248.01 55.0994 248.01 56.1594C248.01 57.2194 247.77 58.1794 247.27 59.0294C246.78 59.8794 246.11 60.5394 245.26 61.0194C244.41 61.4894 243.47 61.7294 242.45 61.7294C241.43 61.7294 240.51 61.4894 239.66 61.0194ZM244.38 59.6894C244.94 59.3594 245.38 58.8894 245.7 58.2794C246.02 57.6694 246.18 56.9594 246.18 56.1594C246.18 55.3594 246.02 54.6494 245.7 54.0494C245.38 53.4494 244.94 52.9794 244.38 52.6594C243.82 52.3394 243.18 52.1794 242.46 52.1794C241.74 52.1794 241.1 52.3394 240.54 52.6594C239.98 52.9794 239.54 53.4494 239.22 54.0494C238.9 54.6494 238.74 55.3594 238.74 56.1594C238.74 56.9594 238.9 57.6694 239.22 58.2794C239.54 58.8894 239.98 59.3594 240.54 59.6894C241.1 60.0194 241.74 60.1794 242.46 60.1794C243.18 60.1794 243.82 60.0194 244.38 59.6894Z" fill="#003B3F"/>
<path d="M263.4 50.7598V57.6898C263.4 58.5098 263.62 59.1298 264.05 59.5498C264.48 59.9698 265.08 60.1798 265.86 60.1798C266.64 60.1798 267.25 59.9698 267.68 59.5498C268.11 59.1298 268.33 58.5098 268.33 57.6898V50.7598H270.11V57.6498C270.11 58.5398 269.92 59.2898 269.53 59.8998C269.14 60.5198 268.63 60.9698 267.98 61.2798C267.33 61.5798 266.62 61.7298 265.84 61.7298C265.06 61.7298 264.35 61.5798 263.71 61.2798C263.07 60.9798 262.56 60.5198 262.19 59.8998C261.81 59.2898 261.63 58.5298 261.63 57.6498V50.7598H263.41H263.4Z" fill="#003B3F"/>
<path d="M291.51 55.5598C291.25 56.0498 290.83 56.4498 290.26 56.7598C289.69 57.0698 288.95 57.2198 288.06 57.2198H286.09V61.6298H284.31V50.7598H288.06C288.89 50.7598 289.6 50.8998 290.18 51.1898C290.76 51.4798 291.19 51.8598 291.48 52.3498C291.77 52.8398 291.91 53.3898 291.91 53.9898C291.91 54.5398 291.78 55.0598 291.52 55.5498L291.51 55.5598ZM289.58 55.2998C289.91 54.9898 290.08 54.5598 290.08 53.9898C290.08 52.7998 289.41 52.2098 288.06 52.2098H286.09V55.7598H288.06C288.74 55.7598 289.24 55.6098 289.58 55.2998Z" fill="#003B3F"/>
<path d="M203.85 26.9307L204.12 27.3607L213.88 42.6507H225.13L215.1 26.9307L225.13 11.2207H213.88L203.85 26.9307Z" fill="#00A3AC"/>
<path d="M201.8 11.2207H190.55L200.59 26.9307L190.55 42.6507H201.8L211.56 27.3607L211.84 26.9307L201.8 11.2207Z" fill="#003B3F"/>
<path d="M42.4 26.52C40.51 36.78 32.26 42.77 21.75 42.77C9.59 42.77 0 33.42 0 21.38C0 9.34 9.59 0 21.75 0C31.83 0 40.38 5.99 42.34 15.7L32.44 18.02C31.16 12.09 27 9.22 21.75 9.22C15.27 9.22 10.08 14.41 10.08 21.38C10.08 28.35 15.27 33.6 21.75 33.6C26.94 33.6 31.1 30.67 32.5 24.56L42.4 26.52Z" fill="#00A3AC"/>
<path d="M79.8501 26.5206C79.8501 36.2306 72.1501 42.7106 63.0501 42.7106C53.9501 42.7106 46.0701 36.2306 46.0701 26.5206C46.0701 16.8106 53.7701 10.3906 63.0501 10.3906C72.3301 10.3906 79.8501 16.8706 79.8501 26.5206ZM70.4501 26.5206C70.4501 21.7506 66.8501 18.5806 63.0601 18.5806C59.2701 18.5806 55.4801 21.7606 55.4801 26.5206C55.4801 31.2806 59.0801 34.4606 63.0601 34.4606C67.0401 34.4606 70.4501 31.3406 70.4501 26.5206Z" fill="#00A3AC"/>
<path d="M116.02 23.0298V41.8498H106.31V25.1098C106.31 21.5098 104.17 19.0598 101.06 19.0598C97.2099 19.0598 94.7099 21.6898 94.7099 27.6098V41.8498H84.9299V11.1798H94.7099V14.1098C97.0299 11.6698 100.27 10.2598 104.12 10.2598C111.27 10.2598 116.03 15.3298 116.03 23.0298H116.02Z" fill="#00A3AC"/>
<path d="M153.78 23.0298V41.8498H144.07V25.1098C144.07 21.5098 141.93 19.0598 138.82 19.0598C134.97 19.0598 132.47 21.6898 132.47 27.6098V41.8498H122.69V11.1798H132.47V14.1098C134.79 11.6698 138.03 10.2598 141.88 10.2598C149.03 10.2598 153.79 15.3298 153.79 23.0298H153.78Z" fill="#00A3AC"/>
<path d="M190.5 29.0195H168.02C168.81 32.6895 171.32 34.9495 174.62 34.9495C176.88 34.9495 179.51 34.3995 181.16 31.4095L189.84 33.1795C187.21 39.6595 181.65 42.7695 174.63 42.7695C165.77 42.7695 158.44 36.2295 158.44 26.5195C158.44 16.8095 165.77 10.2695 174.69 10.2695C183.61 10.2695 190.33 16.4995 190.51 26.5195V29.0195H190.5ZM168.2 23.0295H180.85C179.93 19.7295 177.49 18.1995 174.68 18.1995C171.87 18.1995 169.12 19.9095 168.2 23.0295Z" fill="#00A3AC"/>
<path d="M261.74 41.8497H251.96V38.9197C249.64 41.3597 246.4 42.7697 242.55 42.7697C235.4 42.7697 230.64 37.6997 230.64 29.9997V11.1797H240.35V27.9197C240.35 31.5197 242.49 33.9697 245.6 33.9697C249.45 33.9697 251.95 31.3397 251.95 25.4197V11.1797H261.73V41.8497H261.74Z" fill="#003B3F"/>
<path d="M276.1 31.8898C276.53 34.5198 278.91 35.4898 281.54 35.4898C284.17 35.4898 285.51 34.3898 285.51 33.0498C285.51 32.0098 284.72 31.2198 282.46 30.7898L276.23 29.5698C270.55 28.5298 267.31 25.4798 267.31 20.6498C267.31 14.3598 272.75 10.2598 280.51 10.2598C288.27 10.2598 293.22 13.7398 294.44 19.0598L285.52 20.8298C285.21 18.9398 283.38 17.2298 280.39 17.2298C277.76 17.2298 276.91 18.5098 276.91 19.6098C276.91 20.4698 277.28 21.3198 279.23 21.7498L286.44 23.2198C292.24 24.4398 294.93 27.9198 294.93 32.4498C294.93 39.2298 289.06 42.7798 281 42.7798C273.79 42.7798 267.62 40.1498 266.58 33.8598L276.11 31.9098L276.1 31.8898Z" fill="#003B3F"/>
</g>
<defs>
<clipPath id="clip0_705_2">
<rect width="294.92" height="61.73" fill="white"/>
</clipPath>
</defs>
</svg>
